<svg width="38" height="45" viewBox="0 0 38 45" fill="none" xmlns="http://www.w3.org/2000/svg">
<path d="M18.9997 45.0003C13.8275 45.0003 9.42367 43.2114 5.78834 39.6337C2.15145 36.0559 0.333008 31.7003 0.333008 26.567C0.333008 24.0392 0.819119 21.6763 1.79134 19.4783C2.76356 17.2819 4.10523 15.3281 5.81634 13.617L18.9997 0.666992L32.183 13.617C33.8941 15.3281 35.2358 17.2819 36.208 19.4783C37.1802 21.6763 37.6663 24.0392 37.6663 26.567C37.6663 31.7003 35.8487 36.0559 32.2133 39.6337C28.5765 43.2114 24.1719 45.0003 18.9997 45.0003ZM5.11634 28.667H32.7663C33.233 25.867 32.9701 23.4753 31.9777 21.492C30.9868 19.5087 29.9663 18.0114 28.9163 17.0003L18.9997 7.20033L9.08301 17.0003C8.03301 18.0114 7.00245 19.5087 5.99134 21.492C4.98023 23.4753 4.68856 25.867 5.11634 28.667Z" fill="#0B8FE4"/>
</svg>
