<svg width="18" height="17" viewBox="0 0 18 17" fill="none" xmlns="http://www.w3.org/2000/svg">
<path d="M5.83301 16.8337C5.37467 16.8337 4.98245 16.6706 4.65634 16.3445C4.32967 16.0178 4.16634 15.6253 4.16634 15.167C4.16634 14.7087 4.32967 14.3162 4.65634 13.9895C4.98245 13.6634 5.37467 13.5003 5.83301 13.5003C6.29134 13.5003 6.68356 13.6634 7.00967 13.9895C7.33634 14.3162 7.49967 14.7087 7.49967 15.167C7.49967 15.6253 7.33634 16.0178 7.00967 16.3445C6.68356 16.6706 6.29134 16.8337 5.83301 16.8337ZM14.1663 16.8337C13.708 16.8337 13.3158 16.6706 12.9897 16.3445C12.663 16.0178 12.4997 15.6253 12.4997 15.167C12.4997 14.7087 12.663 14.3162 12.9897 13.9895C13.3158 13.6634 13.708 13.5003 14.1663 13.5003C14.6247 13.5003 15.0172 13.6634 15.3438 13.9895C15.67 14.3162 15.833 14.7087 15.833 15.167C15.833 15.6253 15.67 16.0178 15.3438 16.3445C15.0172 16.6706 14.6247 16.8337 14.1663 16.8337ZM5.12467 3.50033L7.12467 7.66699H12.958L15.2497 3.50033H5.12467ZM4.33301 1.83366H16.6247C16.9441 1.83366 17.1872 1.97588 17.3538 2.26033C17.5205 2.54533 17.5275 2.83366 17.3747 3.12533L14.4163 8.45866C14.2636 8.73644 14.0586 8.95171 13.8013 9.10449C13.5447 9.25727 13.2636 9.33366 12.958 9.33366H6.74967L5.83301 11.0003H15.833V12.667H5.83301C5.20801 12.667 4.73579 12.3925 4.41634 11.8437C4.0969 11.2953 4.08301 10.7503 4.37467 10.2087L5.49967 8.16699L2.49967 1.83366H0.833008V0.166992H3.54134L4.33301 1.83366Z" fill="#0B8FE4"/>
</svg>
