<svg width="40" height="40" viewBox="0 0 40 40" fill="none" xmlns="http://www.w3.org/2000/svg">
<path d="M14 39.9C9.93333 39.4333 6.58333 37.6833 3.95 34.65C1.31667 31.6167 0 27.9333 0 23.6C0 20.2667 1.32533 16.642 3.976 12.726C6.62533 8.80867 10.6333 4.56667 16 0C21.3667 4.56667 25.3747 8.80867 28.024 12.726C30.6747 16.642 32 20.2667 32 23.6V24H28V23.6C28 21.1667 26.992 18.4167 24.976 15.35C22.9587 12.2833 19.9667 8.93333 16 5.3C12.0333 8.93333 9.042 12.2833 7.026 15.35C5.00867 18.4167 4 21.1667 4 23.6C4 26.8333 4.93333 29.5667 6.8 31.8C8.66667 34.0333 11.0667 35.3833 14 35.85V39.9ZM18 40V28H25C25.8 28 26.5 28.3 27.1 28.9C27.7 29.5 28 30.2 28 31V33C28 33.8 27.7 34.5 27.1 35.1C26.5 35.7 25.8 36 25 36H21V40H18ZM30 40V28H33V32H37V28H40V40H37V35H33V40H30ZM21 33H25V31H21V33Z" fill="#0B8FE4"/>
</svg>
