<svg width="40" height="22" viewBox="0 0 40 22" fill="none" xmlns="http://www.w3.org/2000/svg">
<path d="M0 22V18C1.26667 18 2.20867 17.6667 2.826 17C3.442 16.3333 4.73333 16 6.7 16C8.66667 16 9.958 16.3333 10.574 17C11.1913 17.6667 12.1 18 13.3 18C14.5667 18 15.508 17.6667 16.124 17C16.7413 16.3333 18.0333 16 20 16C21.9 16 23.192 16.3333 23.876 17C24.5587 17.6667 25.5 18 26.7 18C27.9667 18 28.892 17.6667 29.476 17C30.0587 16.3333 31.3333 16 33.3 16C35.2667 16 36.558 16.3333 37.174 17C37.7913 17.6667 38.7333 18 40 18V22C38.1 22 36.808 21.6667 36.124 21C35.4413 20.3333 34.5 20 33.3 20C32.1 20 31.192 20.3333 30.576 21C29.9587 21.6667 28.6667 22 26.7 22C24.8 22 23.5087 21.6667 22.826 21C22.142 20.3333 21.2 20 20 20C18.7333 20 17.792 20.3333 17.176 21C16.5587 21.6667 15.2667 22 13.3 22C11.3333 22 10.0587 21.6667 9.476 21C8.892 20.3333 7.96667 20 6.7 20C5.43333 20 4.492 20.3333 3.876 21C3.25867 21.6667 1.96667 22 0 22ZM0 14V10C1.26667 10 2.20867 9.66667 2.826 9C3.442 8.33333 4.73333 8 6.7 8C8.6 8 9.87533 8.33333 10.526 9C11.1753 9.66667 12.1 10 13.3 10C14.5667 10 15.508 9.66667 16.124 9C16.7413 8.33333 18.0333 8 20 8C21.9 8 23.1833 8.33333 23.85 9C24.5167 9.66667 25.4333 10 26.6 10C27.8667 10 28.808 9.66667 29.424 9C30.0413 8.33333 31.3333 8 33.3 8C35.2 8 36.492 8.33333 37.176 9C37.8587 9.66667 38.8 10 40 10V14C38.0333 14 36.7253 13.6667 36.076 13C35.4253 12.3333 34.5 12 33.3 12C32.1 12 31.192 12.3333 30.576 13C29.9587 13.6667 28.6667 14 26.7 14C24.8 14 23.5087 13.6667 22.826 13C22.142 12.3333 21.2 12 20 12C18.7333 12 17.8087 12.3333 17.226 13C16.642 13.6667 15.3667 14 13.4 14C11.4333 14 10.1253 13.6667 9.476 13C8.82533 12.3333 7.9 12 6.7 12C5.5 12 4.55867 12.3333 3.876 13C3.192 13.6667 1.9 14 0 14ZM0 6V2C1.26667 2 2.20867 1.66667 2.826 1C3.442 0.333333 4.73333 0 6.7 0C8.6 0 9.87533 0.333333 10.526 1C11.1753 1.66667 12.1 2 13.3 2C14.5667 2 15.508 1.66667 16.124 1C16.7413 0.333333 18.0333 0 20 0C21.9 0 23.1833 0.333333 23.85 1C24.5167 1.66667 25.4333 2 26.6 2C27.8667 2 28.808 1.66667 29.424 1C30.0413 0.333333 31.3333 0 33.3 0C35.2 0 36.492 0.333333 37.176 1C37.8587 1.66667 38.8 2 40 2V6C38.0333 6 36.7253 5.66667 36.076 5C35.4253 4.33333 34.5 4 33.3 4C32.1 4 31.192 4.33333 30.576 5C29.9587 5.66667 28.6667 6 26.7 6C24.8 6 23.5087 5.66667 22.826 5C22.142 4.33333 21.2 4 20 4C18.7333 4 17.8087 4.33333 17.226 5C16.642 5.66667 15.3667 6 13.4 6C11.4333 6 10.1253 5.66667 9.476 5C8.82533 4.33333 7.9 4 6.7 4C5.5 4 4.55867 4.33333 3.876 5C3.192 5.66667 1.9 6 0 6Z" fill="#0B8FE4"/>
</svg>
